$MeshFormat
4.1 0 8
$EndMeshFormat
$PhysicalNames
4
0 1 "00_01_01"
0 2 "00_01_02"
1 3 "00_02_03"
2 4 "01_03_00"
$EndPhysicalNames
$Entities
9 8 1 0
1 0 0 0 0 
2 100 0 0 1 2 
3 0 -100 0 1 1 
4 -100 0 0 1 2 
5 0 100 0 1 1 
7 200 0 0 0 
8 0 -200 0 0 
9 -200 0 0 0 
10 0 200 0 0 
1 7.105427357601002e-15 -100 0 100 0 0 1 3 2 2 -3 
2 -100 -100 0 0 -7.105427357601002e-15 0 1 3 2 3 -4 
3 -100 0 0 -7.105427357601002e-15 100 0 1 3 2 4 -5 
4 0 7.105427357601002e-15 0 100 100 0 1 3 2 5 -2 
5 1.4210854715202e-14 0 0 200 200 0 0 2 7 -10 
6 -200 1.4210854715202e-14 0 0 200 0 0 2 10 -9 
7 -200 -200 0 -1.4210854715202e-14 0 0 0 2 9 -8 
8 0 -200 0 200 -1.4210854715202e-14 0 0 2 8 -7 
1 -200 -200 0 200 200 0 1 4 8 1 2 3 4 5 6 7 8 
$EndEntities
$Nodes
17 812 1 812
0 2 0 1
1
100 0 0
0 3 0 1
2
0 -100 0
0 4 0 1
3
-100 0 0
0 5 0 1
4
0 100 0
0 7 0 1
5
200 0 0
0 8 0 1
6
0 -200 0
0 9 0 1
7
-200 0 0
0 10 0 1
8
0 200 0
1 1 0 20
9
10
11
12
13
14
15
16
17
18
19
20
21
22
23
24
25
26
27
28
99.72037971690085 -7.473009374884318 0
98.88308261752043 -14.90422665074002 0
97.49279120610623 -22.25209344854044 0
95.55728055639479 -29.47551751312358 0
93.08737482832622 -36.53410252860603 0
90.09688673678828 -43.38837402275342 0
86.60254030709912 -50.00000012357272 0
82.6238773375707 -56.33200594427709 0
78.18314812809506 -62.34898033472839 0
73.30518702839906 -68.0172739436934 0
68.01727361142072 -73.30518733670307 0
62.34898002826099 -78.18314837249464 0
56.332005658127 -82.62387753266454 0
49.99999985455227 -86.60254046241815 0
43.38837377847981 -90.09688685442426 0
36.53410232513505 -93.0873749081827 0
29.47551734673011 -95.55728060772037 0
22.25209332076888 -97.49279123526925 0
14.90422656710447 -98.88308263012647 0
7.473009333997668 -99.72037971996488 0
1 2 0 20
29
30
31
32
33
34
35
36
37
38
39
40
41
42
43
44
45
46
47
48
-7.473009374884318 -99.72037971690085 0
-14.90422665074002 -98.88308261752043 0
-22.25209344854044 -97.49279120610623 0
-29.47551751312358 -95.55728055639479 0
-36.53410252860603 -93.08737482832622 0
-43.38837402275342 -90.09688673678828 0
-50.00000012357272 -86.60254030709912 0
-56.33200594427709 -82.6238773375707 0
-62.34898033472839 -78.18314812809506 0
-68.0172739436934 -73.30518702839906 0
-73.30518733670307 -68.01727361142072 0
-78.18314837249464 -62.34898002826099 0
-82.62387753266454 -56.332005658127 0
-86.60254046241815 -49.99999985455227 0
-90.09688685442426 -43.38837377847981 0
-93.0873749081827 -36.53410232513505 0
-95.55728060772037 -29.47551734673011 0
-97.49279123526925 -22.25209332076888 0
-98.88308263012647 -14.90422656710447 0
-99.72037971996488 -7.473009333997668 0
1 3 0 20
49
50
51
52
53
54
55
56
57
58
59
60
61
62
63
64
65
66
67
68
-99.72037971690085 7.473009374884318 0
-98.88308261752043 14.90422665074002 0
-97.49279120610623 22.25209344854044 0
-95.55728055639479 29.47551751312358 0
-93.08737482832622 36.53410252860603 0
-90.09688673678828 43.38837402275342 0
-86.60254030709912 50.00000012357272 0
-82.6238773375707 56.33200594427709 0
-78.18314812809506 62.34898033472839 0
-73.30518702839906 68.0172739436934 0
-68.01727361142072 73.30518733670307 0
-62.34898002826099 78.18314837249464 0
-56.332005658127 82.62387753266454 0
-49.99999985455227 86.60254046241815 0
-43.38837377847981 90.09688685442426 0
-36.53410232513505 93.0873749081827 0
-29.47551734673011 95.55728060772037 0
-22.25209332076888 97.49279123526925 0
-14.90422656710447 98.88308263012647 0
-7.473009333997668 99.72037971996488 0
1 4 0 20
69
70
71
72
73
74
75
76
77
78
79
80
81
82
83
84
85
86
87
88
7.473009374884318 99.72037971690085 0
14.90422665074002 98.88308261752043 0
22.25209344854044 97.49279120610623 0
29.47551751312358 95.55728055639479 0
36.53410252860603 93.08737482832622 0
43.38837402275342 90.09688673678828 0
50.00000012357272 86.60254030709912 0
56.33200594427709 82.6238773375707 0
62.34898033472839 78.18314812809506 0
68.0172739436934 73.30518702839906 0
73.30518733670307 68.01727361142072 0
78.18314837249464 62.34898002826099 0
82.62387753266454 56.332005658127 0
86.60254046241815 49.99999985455227 0
90.09688685442426 43.38837377847981 0
93.0873749081827 36.53410232513505 0
95.55728060772037 29.47551734673011 0
97.49279123526925 22.25209332076888 0
98.88308263012647 14.90422656710447 0
99.72037971996488 7.473009333997668 0
1 5 0 16
89
90
91
92
93
94
95
96
97
98
99
100
101
102
103
104
199.1468352554535 18.45367193100821 0
196.5946199208989 36.74990364827217 0
192.3651285967974 54.73259814715173 0
186.4944458114075 72.24833341673687 0
179.0326581582638 89.14767138173741 0
170.0434269846897 105.2864328358715 0
159.60344523844 120.5269275640107 0
147.8017831469482 134.7391290553063 0
134.7391284002879 147.8017837440764 0
120.5269269683543 159.6034456882588 0
105.2864322746074 170.0434273322098 0
89.14767087935135 179.0326584084224 0
72.24833301725442 186.4944459661679 0
54.73259783282247 192.3651286862318 0
36.74990344743262 196.5946199584424 0
18.45367183092063 199.1468352647279 0
1 6 0 16
105
106
107
108
109
110
111
112
113
114
115
116
117
118
119
120
-18.45367193100821 199.1468352554535 0
-36.74990364827217 196.5946199208989 0
-54.73259814715173 192.3651285967974 0
-72.24833341673687 186.4944458114075 0
-89.14767138173741 179.0326581582638 0
-105.2864328358715 170.0434269846897 0
-120.5269275640107 159.60344523844 0
-134.7391290553063 147.8017831469482 0
-147.8017837440764 134.7391284002879 0
-159.6034456882588 120.5269269683543 0
-170.0434273322098 105.2864322746074 0
-179.0326584084224 89.14767087935135 0
-186.4944459661679 72.24833301725442 0
-192.3651286862318 54.73259783282247 0
-196.5946199584424 36.74990344743262 0
-199.1468352647279 18.45367183092063 0
1 7 0 16
121
122
123
124
125
126
127
128
129
130
131
132
133
134
135
136
-199.1468352554535 -18.45367193100821 0
-196.5946199208989 -36.74990364827217 0
-192.3651285967974 -54.73259814715173 0
-186.4944458114075 -72.24833341673687 0
-179.0326581582638 -89.14767138173741 0
-170.0434269846897 -105.2864328358715 0
-159.60344523844 -120.5269275640107 0
-147.8017831469482 -134.7391290553063 0
-134.7391284002879 -147.8017837440764 0
-120.5269269683543 -159.6034456882588 0
-105.2864322746074 -170.0434273322098 0
-89.14767087935135 -179.0326584084224 0
-72.24833301725442 -186.4944459661679 0
-54.73259783282247 -192.3651286862318 0
-36.74990344743262 -196.5946199584424 0
-18.45367183092063 -199.1468352647279 0
1 8 0 16
137
138
139
140
141
142
143
144
145
146
147
148
149
150
151
152
18.45367193100821 -199.1468352554535 0
36.74990364827217 -196.5946199208989 0
54.73259814715173 -192.3651285967974 0
72.24833341673687 -186.4944458114075 0
89.14767138173741 -179.0326581582638 0
105.2864328358715 -170.0434269846897 0
120.5269275640107 -159.60344523844 0
134.7391290553063 -147.8017831469482 0
147.8017837440764 -134.7391284002879 0
159.6034456882588 -120.5269269683543 0
170.0434273322098 -105.2864322746074 0
179.0326584084224 -89.14767087935135 0
186.4944459661679 -72.24833301725442 0
192.3651286862318 -54.73259783282247 0
196.5946199584424 -36.74990344743262 0
199.1468352647279 -18.45367183092063 0
2 1 0 660
153
154
155
156
157
158
159
160
161
162
163
164
165
166
167
168
169
170
171
172
173
174
175
176
177
178
179
180
181
182
183
184
185
186
187
188
189
190
191
192
193
194
195
196
197
198
199
200
201
202
203
204
205
206
207
208
209
210
211
212
213
214
215
216
217
218
219
220
221
222
223
224
225
226
227
228
229
230
231
232
233
234
235
236
237
238
239
240
241
242
243
244
245
246
247
248
249
250
251
252
253
254
255
256
257
258
259
260
261
262
263
264
265
266
267
268
269
270
271
272
273
274
275
276
277
278
279
280
281
282
283
284
285
286
287
288
289
290
291
292
293
294
295
296
297
298
299
300
301
302
303
304
305
306
307
308
309
310
311
312
313
314
315
316
317
318
319
320
321
322
323
324
325
326
327
328
329
330
331
332
333
334
335
336
337
338
339
340
341
342
343
344
345
346
347
348
349
350
351
352
353
354
355
356
357
358
359
360
361
362
363
364
365
366
367
368
369
370
371
372
373
374
375
376
377
378
379
380
381
382
383
384
385
386
387
388
389
390
391
392
393
394
395
396
397
398
399
400
401
402
403
404
405
406
407
408
409
410
411
412
413
414
415
416
417
418
419
420
421
422
423
424
425
426
427
428
429
430
431
432
433
434
435
436
437
438
439
440
441
442
443
444
445
446
447
448
449
450
451
452
453
454
455
456
457
458
459
460
461
462
463
464
465
466
467
468
469
470
471
472
473
474
475
476
477
478
479
480
481
482
483
484
485
486
487
488
489
490
491
492
493
494
495
496
497
498
499
500
501
502
503
504
505
506
507
508
509
510
511
512
513
514
515
516
517
518
519
520
521
522
523
524
525
526
527
528
529
530
531
532
533
534
535
536
537
538
539
540
541
542
543
544
545
546
547
548
549
550
551
552
553
554
555
556
557
558
559
560
561
562
563
564
565
566
567
568
569
570
571
572
573
574
575
576
577
578
579
580
581
582
583
584
585
586
587
588
589
590
591
592
593
594
595
596
597
598
599
600
601
602
603
604
605
606
607
608
609
610
611
612
613
614
615
616
617
618
619
620
621
622
623
624
625
626
627
628
629
630
631
632
633
634
635
636
637
638
639
640
641
642
643
644
645
646
647
648
649
650
651
652
653
654
655
656
657
658
659
660
661
662
663
664
665
666
667
668
669
670
671
672
673
674
675
676
677
678
679
680
681
682
683
684
685
686
687
688
689
690
691
692
693
694
695
696
697
698
699
700
701
702
703
704
705
706
707
708
709
710
711
712
713
714
715
716
717
718
719
720
721
722
723
724
725
726
727
728
729
730
731
732
733
734
735
736
737
738
739
740
741
742
743
744
745
746
747
748
749
750
751
752
753
754
755
756
757
758
759
760
761
762
763
764
765
766
767
768
769
770
771
772
773
774
775
776
777
778
779
780
781
782
783
784
785
786
787
788
789
790
791
792
793
794
795
796
797
798
799
800
801
802
803
804
805
806
807
808
809
810
811
812
-75.24069764418826 75.24069798523406 -0
75.24005885169808 75.08020316376552 0
76.09736158049441 -74.32146827161381 0
-75.16068264117139 -75.01073008030234 0
97.68066685422355 -42.74940013336215 0
-43.18456949138842 -97.8959194139009 0
-97.91797751328779 41.50009296210519 -0
42.34873239775631 98.11311655326359 0
42.30181338027106 -97.60625523383848 0
-97.52810408433452 -42.55107667607612 0
-42.0442252135415 97.94631357145707 -0
97.52810408433452 42.55107667607612 0
105.9137054883585 3.723828714778885 0
2.803090987267791 -105.3632037729673 0
-106.4300962979388 -4.196700040047843 0
-3.454865545825502 106.2672515435864 -0
104.6280765458239 -19.90321508326943 0
-19.78218773030156 -104.5513762208175 0
-104.5513762208175 19.78218773030155 -0
20.11337777585853 104.2375609233006 0
103.8653903131824 151.6247809543988 0
-151.6247809543988 103.8653903131824 -0
-104.1345365349092 -153.7251889846686 0
151.6693860220747 -104.5456239490901 0
-152.9183979737559 -102.8887167610353 0
105.3801926521108 -153.1419809923343 0
152.6117416131353 102.7688891984077 0
-103.6316096059936 152.3205817571717 -0
180.2022634438411 43.38642403594032 0
-43.04530241997965 180.8374127096504 -0
-180.3127461442791 -42.68719960699492 0
42.07840396631618 -178.9064039958632 0
19.69018050198434 -104.3406783746653 0
-105.3243910011262 -20.43366383886776 0
-19.95676531376903 105.0108835942325 -0
103.704266378354 20.96983792576445 0
90.09688671796303 -56.61162623736823 0
-56.73404318276986 -89.61415667535096 0
-90.09688671796303 56.61162623736823 -0
57.33262247542678 89.96006073877358 0
-90.22021994377769 -56.59803569622902 0
-56.30040126210574 89.83414802796281 -0
90.18519981409496 56.46798859242338 0
55.89577102403104 -90.16620211195234 0
59.38756827745306 174.9765686657916 0
-174.3885578048034 59.10660881547066 -0
-58.57941884800622 -175.6210639890479 0
175.8330416606241 -60.0717056737018 0
184.9717377912127 -8.71548284286593 0
-9.931265788845337 -184.058077892425 0
-183.5920690336854 8.487973581101654 -0
8.940561938821478 184.8112658605046 0
129.7479409733101 130.0627466708093 0
-130.0600549679906 130.0631302071281 -0
-131.4185839331065 -129.2513172698415 0
131.1326332691535 -131.2287941571014 0
169.3621382948134 75.07531210985887 0
-75.07654066200962 167.892580122811 -0
-168.7468772783017 -75.12032482286421 0
74.66491214079555 -166.9747208995952 0
105.8840911745601 -11.99537802739387 0
112.4421459892454 -17.20963775185439 0
110.4398100680941 -25.95450760148779 0
119.06817943478 -23.81787503290668 0
121.0965228604167 -13.97487349861789 0
128.6905595200448 -20.55027428420492 0
130.7022612295816 -9.892914990146558 0
126.2834898733635 -31.06082045435259 0
136.9037883386277 -27.55525843396031 0
134.3781824443379 -38.46885141001387 0
123.451067868234 -41.81987628367038 0
131.4960091157157 -49.51732327237129 0
120.439645281947 -52.69634842847464 0
128.7091659904923 -60.89128607009043 0
117.3298950125746 -64.16235110990314 0
125.8421023920501 -72.49785201570798 0
114.1234813311075 -75.83301875143468 0
137.9464864425769 -68.80797037922559 0
122.702471598022 -84.19310916311713 0
110.9153641196232 -87.38045437779176 0
145.9246832195446 -35.24890168211637 0
149.3037863199607 -20.61851904166582 0
102.6136147494999 -79.10612133535125 0
99.15517513524993 -90.41314877573203 0
107.6124872887536 -99.16428293068748 0
95.38699710895725 -102.0074315169522 0
158.4080531338959 -31.03710158467156 0
103.8793761851765 -110.7693934404737 0
91.50543139875438 -113.7039555849148 0
83.2137829473176 -104.619191971184 0
79.36229936249322 -116.0718739718423 0
71.39352908498338 -107.2455199396713 0
67.18638113322407 -118.4095767473437 0
75.43606682580331 -127.8004725596026 0
63.10149748743994 -129.7367741949717 0
55.2255967167925 -120.470153967442 0
51.03047868872338 -131.4816282804513 0
43.58643290709759 -122.2148445595393 0
38.80130689967762 -133.0965682035566 0
46.61369155494075 -143.0001658244262 0
34.07884664258403 -144.383150371783 0
26.50157712789289 -134.4667631473621 0
21.56744135275523 -145.6867620336012 0
14.44889754264045 -135.7328587647303 0
9.189343726511808 -146.8793131866316 0
2.135703245119052 -136.9641532722472 0
-3.173272303428423 -148.1086553801863 0
-11.82950623482791 -136.8514186585536 0
-15.88688719613553 -149.3918667560964 0
-24.14682101464766 -139.5248137377227 0
17.75102738536558 -157.5833748330846 0
-28.34667270870888 -150.8285318456462 0
-35.9687780983181 -140.3123852190326 0
-31.50936161397407 -129.7821063214928 0
-42.62940173433844 -130.0553379144517 0
-48.30262232232059 -141.3223559533397 0
-54.94173261098624 -128.6073664723787 0
-61.08953116464203 -141.7103454655295 0
-67.86525393179674 -130.6581419116681 0
-62.99538665092636 -119.1596065742707 0
-74.4978631548837 -120.2344663391647 0
-69.08242719442323 -107.6618803099603 0
-80.80517560061844 -109.5552083426249 0
-86.75940256275308 -120.6651809736865 0
-92.85224895204011 -109.8390574652855 0
-87.00357837124729 -99.24876341880744 0
-98.70384586798123 -99.24730569245017 0
-92.74901043565563 -89.09646130056758 0
-104.5082685569045 -88.49732099031502 0
-110.9210019599537 -99.19008731807503 0
-116.6144675221775 -88.10788338410265 0
-110.0908802664005 -77.66218727354061 0
-122.1348807573435 -77.0501479534114 0
-115.3443597992955 -66.87109592656074 0
-127.4880329097361 -66.1573723670586 0
-120.9207527101696 -55.99336558814938 0
-132.8845270645024 -55.31728722922901 0
-126.30342026181 -45.13795972389632 0
-138.2966718315484 -44.45275533249379 0
-131.622968310392 -35.16232635541751 0
-143.6174199751281 -33.49833049658362 0
-135.0521028351569 -23.78879412737317 0
-149.2521461550155 -22.36256097014659 0
-141.9262998310087 -12.10819377912243 0
-129.9398749168347 -12.87870538710534 0
-135.0582090635286 -1.752326307618635 0
-147.1532949620055 -0.7844321144219875 0
-139.9031286778443 9.03155390689024 -0
-128.2491268920851 7.946154922841785 -0
-132.4492751666446 18.87018516329707 -0
-144.5414621667921 20.27797748270937 -0
-136.6313117850619 30.27459416774349 -0
-149.0631865899308 31.79989355102998 -0
-140.8606848567142 41.56168446270757 -0
-128.7375767507689 39.9075038142922 -0
-132.8980100951149 51.21609825090076 -0
-121.0706713764757 49.12751533693616 -0
-124.7573404896815 60.59534802291004 -0
-137.2079007330618 62.87143565231671 -0
-128.7415304388585 72.24399735570276 -0
-116.5203186424792 69.78228080838281 -0
-120.1675589569977 81.28004099803717 -0
-108.2461218242081 78.6120600198083 -0
-111.871201175791 90.2359705496938 -0
-100.2403322726519 87.50090936664841 -0
-103.6661593508652 99.09934745735157 -0
-90.74296846493098 95.06260805576775 -0
-95.2478572581476 107.7560510326934 -0
-83.396100665338 105.1536649111333 -0
-87.10975659334201 116.8666135733275 -0
-75.09749841562314 114.2726853554874 -0
-78.51949272181415 125.7074717036265 -0
-66.78827215398584 122.9760224627779 -0
-135.3484410318562 -76.46488076882113 0
-4.948376621078062 -127.0263719742445 0
-117.3194766179653 38.4851680315511 -0
-63.76452452861852 109.9642018431488 -0
-53.49178168873692 118.5543695559824 -0
-58.10508102884612 131.4708694621639 -0
-45.8695015740589 128.2330918177937 -0
-49.51111986480402 140.3278074331367 -0
-37.58418176550438 136.8873463433891 -0
-34.42048729285239 125.3582024279183 -0
-26.40772546427508 133.928824631947 -0
-28.80771757319128 145.5395529087183 -0
-17.23168680550492 142.1825190770217 -0
-19.41674704025633 154.2580986943148 -0
-7.095229340931626 150.0815917784351 -0
-6.166725401722919 136.4579233179194 -0
4.672660209296559 145.3863237993704 0
7.262367510202196 133.1886146019538 0
16.41420747530908 141.2052537515362 0
18.52250327636527 129.602530017301 0
27.59716854655058 137.1779677530659 0
25.84479874256596 149.0169459403221 0
29.59661560500871 125.834151378663 0
38.5335472046591 133.2406535580721 0
40.51071336009662 122.0673605702933 0
49.37315111692838 129.3904763312483 0
51.34474759277333 118.2268559461822 0
60.21219135392448 125.4953950220178 0
62.45121979773012 114.1833623655553 0
71.13587013727076 121.5879509877868 0
73.47269921550564 110.1296914024431 0
82.31064153993833 117.9542135939161 0
84.06046268245525 106.7255310531211 0
68.6275390652185 133.2755177820974 0
93.78482873553801 114.3901586399613 0
94.39412956375031 100.9606480034754 0
46.98197608398993 139.1043542989479 0
74.8908958050578 99.78543275301723 0
-37.26990175098298 -119.8242624504864 0
-99.31719784619955 120.8064122506982 -0
105.7391702615517 109.8465750047207 0
107.6613246445054 97.15704911813296 0
98.32033443336383 88.40294244367266 0
109.818787889523 84.28288028046882 0
120.8206793434536 91.89967599773406 0
121.453402746458 79.63744377676684 0
111.6688453438262 71.72245341357373 0
122.7667229096415 66.98206059894386 0
133.1343800731727 74.67955246793805 0
134.0183880248121 61.8971384138747 0
123.8273627853652 54.63273210700801 0
134.7268605713494 49.3999990062635 0
124.6428833386242 42.64151929354057 0
135.2598199141233 37.31147300288991 0
125.5445935487067 30.94078673583852 0
136.0272355430968 25.57682976370161 0
125.9595459674041 19.78274025179187 0
136.6242588891224 13.87260828258074 0
147.1153746828745 20.38585775929596 0
146.2072788809311 5.735430323625448 0
158.79416459045 14.42256105438168 0
145.8510242636301 43.84129975679555 0
-120.0495752841211 -36.49873368138002 0
9.902394033142183 122.3530941123025 0
-97.00609314885243 76.54228451775629 -0
75.23242279161182 -96.59761829887658 0
-115.6825730855734 102.1017102838684 -0
-141.6695266179471 75.3095824436697 -0
-99.23038672085558 -121.2003341191211 0
122.0115159660936 -2.568374540786059 0
-74.21191167374468 -143.0099662186504 0
-78.96382677848894 94.66447624942541 -0
-145.2889624402343 -54.7736575484502 0
19.24011051777555 -125.1268208139765 0
115.6203494632574 35.98494985352737 0
-58.83652214787507 -109.0241773236842 0
-157.6396143335312 21.61960446384006 -0
-109.2722774513083 -56.99876523756076 0
103.5193455078638 123.3438511483436 0
-123.8732082036282 -99.03243272857704 0
-23.56153058868431 122.0370377727985 -0
-32.05915832033453 114.6066099450274 -0
109.7316576402387 -56.25056576834803 0
71.55312488870058 -139.7381489620911 0
101.1702203751553 -123.6877977425322 0
116.8917140605367 -107.947767321595 0
-9.603276281058005 162.6071823684269 -0
-61.72649876860864 144.032349544798 -0
90.74104480241047 -82.14566924329132 0
-121.9389110745927 17.261038913439 -0
-53.1180512866698 151.3054228270502 -0
158.7610779583221 1.61641888100706 0
-162.7340000332994 33.92132640098024 -0
32.00399767755106 115.5295029660068 0
83.46649505529666 -137.3930218237632 0
-117.6246682664888 -110.177071529762 0
-26.44469006651757 -119.0339260294134 0
-33.45901139904418 -109.6791406117535 0
94.15347164970696 -71.93707068708916 0
-118.5711438083736 7.978575261099824 -0
-81.75591978547266 -89.85883291012443 0
-20.97186638559729 -161.6961507779482 0
-34.41221410886268 -163.6334728539808 0
157.6988382930898 27.43146994511858 0
155.0407219733038 -43.68444851419669 0
-54.14134640715529 108.5830422076203 -0
170.8876572169871 22.31805727995829 0
53.66897815467765 107.1348395530872 0
47.66182398009472 -111.7702177772842 0
37.81053352664925 -114.0456455726658 0
-150.0969043515202 64.76259930435533 -0
-156.6521302568315 -33.10044800161685 0
-162.984807333369 -20.5876468075633 0
40.85687976488089 -154.8046231139583 0
54.45106215375964 -153.1599536308128 0
-155.3810726946434 76.77328263845477 -0
-32.15247826470787 158.5228840723907 -0
144.8309915046614 69.32852995493104 0
-110.5613455551953 47.45306484791153 -0
-93.67257106915777 -132.3739167946936 0
-87.17970654659453 -80.92436491040274 0
-42.47872024771189 -111.451383246373 0
117.0409930974426 25.12212395460917 0
116.0775007703393 14.01393018436957 0
161.2957734131392 -19.44546750748601 0
171.0876088074335 -28.26947240603033 0
-53.90723986022915 -153.1130244517118 0
145.1248857006408 85.56698406590989 0
-106.9706534235126 -131.6747564240669 0
-130.6228184422582 -111.6604013903133 0
-61.94057877084612 -100.317212653386 0
-24.81703875043473 -174.7207669499792 0
-59.59331680352604 101.3873553216903 -0
-41.64177036984574 117.4791032828062 -0
64.83039963318647 -99.07126329950535 0
68.63984148961707 -90.09010279950213 0
77.59658476496237 -87.86646505228329 0
-106.6196621728037 37.44244247117399 -0
-112.7432520783446 30.10607345398192 -0
-76.49215856313296 -98.64932891194923 0
-71.62932296015499 -89.51917378048512 0
147.8914577021653 -6.608904289613175 0
125.0826634368725 8.653531284406965 0
20.17069999769976 118.5671970451983 0
42.72247628855774 111.8866546843456 0
35.81101087561658 105.9847967919828 0
58.29620670020478 -108.5052398634669 0
-89.71852998769994 83.41578067105549 -0
-87.43754671015711 73.55213994113299 -0
7.20661376528742 -124.4822593891841 0
13.05332067110843 -116.0123803090195 0
-1.254391169979158 -118.3821984051616 0
-10.43544693862671 -117.2844336492668 0
-13.74801680023036 -126.3850281313588 0
22.3755434941756 -116.3174656093131 0
-93.04501218267467 67.04015357335602 -0
-113.2688008578797 -45.99993788587412 0
-109.175380807289 -35.74689400970237 0
-113.6278175081933 -27.30540378526559 0
134.9355828986059 2.235765209195362 0
-124.1712059988637 -2.011855595412968 0
-119.6054411016033 -10.80856975845975 0
-122.7402778016658 -20.47843145320307 0
-52.97695131065496 -99.9660648171062 0
-72.76646175655645 102.5212286382246 -0
-69.55423027445772 91.97978132080958 -0
11.281788736959 113.0773781737554 0
0.6245305937806972 114.491976817416 0
64.94414969279156 103.1508281877357 0
107.74841753211 29.29345738034857 0
104.4988761511691 -67.03956571550674 0
67.04761960882882 92.35536849537193 0
76.33650319933872 88.73244094632382 0
55.82024670161124 -98.49015105418511 0
-39.07535988446222 107.0517125572459 -0
113.0156787230369 47.37753931805475 0
113.0109553241494 59.24896969144368 0
102.566260704116 64.45431322691368 0
104.0328855674994 53.89295044083514 0
100.6113403984813 76.5965635819781 0
90.63279138067458 81.37192453830897 0
91.25420674911526 70.0424008163194 0
87.56216051547635 91.00482680903276 0
-102.3384959136436 -67.13438652690169 0
-97.96327177118101 -78.94119197282005 0
-89.91068190874165 -71.24625816881699 0
-171.8029186784564 23.08314823787342 -0
-166.33891671381 9.86727276590123 -0
-170.8981880453949 -5.567084578821506 0
-29.05787547984784 104.6034038936298 -0
-103.8683833105448 66.47964871051478 -0
-113.0045162131627 58.21524608126033 -0
-103.6825798454668 54.93715623361602 -0
31.19389473682563 -122.7260944188452 0
112.4319943150114 -44.42521605471511 0
-1.256932716364809 124.8783659321304 -0
-9.017693182355753 117.9957109683576 -0
-11.91592133386026 125.8850036728873 -0
87.21326269821047 -93.22850853889692 0
-47.01731232931678 -119.5155535132228 0
80.19681380904058 -150.8355475176446 0
-76.08689653282691 85.05356529488583 -0
-177.8591007600162 35.55386558443786 -0
-123.870781828147 28.27735961639256 -0
117.2607815522915 119.1769902292838 0
99.14902429912078 -56.96311433153959 0
106.3977340043347 39.31846345991074 0
84.84947109871808 -73.88421665638603 0
-3.068473264086923 -110.6496748652714 0
-105.4826324966082 11.96633928163509 -0
-27.53849891372777 -102.8422478769752 0
-103.6286401294423 28.4002537930213 -0
106.2758874901264 -4.22996738325455 0
-106.2151405740273 3.680008441924581 -0
4.215092137509374 106.3714013752078 0
100.4035669521256 -35.20897720786881 0
-100.5385165280936 -35.62789522872337 0
35.14381091553722 -100.4352416607437 0
-94.23839178508327 -49.74102350589437 0
-98.76465987035245 -57.0998728086774 0
-102.947970937457 -49.06944419795236 0
-49.36437214192387 93.84431714368026 -0
95.63969427687283 49.83788540931503 0
69.82547751752404 82.1701782755102 0
-69.61709005895813 -80.71364514676551 0
70.42605310683996 -81.09364257310847 0
-80.65496299161714 -69.27795561202399 0
81.09788500889718 69.27981993343067 0
86.5553609752364 -64.92862545085187 0
94.35950342914728 -49.80108823694364 0
-95.19448073837012 50.42296337564886 -0
50.28367814178439 93.95070853538159 0
-63.3342331494577 -85.59375346468359 0
-62.77751044048479 86.00273028032707 -0
27.38509926928914 -102.3389076339319 0
-103.6193629479486 -28.47357792167634 0
11.55398952382644 -106.8556085716762 0
-105.9519298801807 -12.35585471936167 0
-11.83354052747242 105.4760206549421 -0
-16.91052278739849 112.1939883684352 -0
106.6992072888004 12.72501345760579 0
-35.02932541449793 -100.654972689592 0
86.35699413604286 62.90716834391408 0
-85.91050968245875 -63.17917369270044 0
117.3728347002889 5.406794867431268 0
113.5874478289305 131.6702480358591 0
130.3433212219231 113.7931196302257 0
116.624671289819 -33.36601285074499 0
-40.51182584870282 -179.5423693648658 0
113.4070161037016 -8.559781366966481 0
102.6788985405476 -48.98391945681902 0
-11.21590245840791 -106.5312890930109 0
-18.20421701551407 -112.8514446505343 0
3.417258033893939 158.6836703157204 0
174.8030508985156 59.30914934570985 0
160.9989050294312 48.67561804354123 0
-59.79009626744404 175.1190235908596 -0
-175.1344725846187 -59.20814229009459 0
-162.1999720445648 -46.98459273554769 0
59.47038673962891 -175.5586864088478 0
161.9419363252925 89.19654621836361 0
135.9050519342901 98.79141170372495 0
-89.35922653725697 160.3379451908221 -0
-89.60745101417018 143.971584393371 -0
-101.2819047250787 135.779118836695 -0
-117.4521411441116 141.8342044760519 -0
-113.551638052472 125.5596420266906 -0
-123.9368657845146 114.2527502035431 -0
-141.2645476241675 117.052878232066 -0
-160.8221908239631 -89.25054839555213 0
-150.8061750994205 -75.91596437400435 0
118.4932512223966 -142.8240702337563 0
142.6111956360255 -118.422830451318 0
133.4398151776022 -103.5757531373157 0
143.6940647515802 -91.23214848564467 0
160.4692097899803 -90.2030454396091 0
151.2044532373605 -75.39487814766426 0
168.787337788876 -75.40144085880281 0
-146.2731040263425 88.58879005963497 -0
-85.54292522970387 63.45416958792697 -0
-156.933375707725 -62.88612594048453 0
102.7807046233454 -27.54000687273937 0
-112.3873896886316 16.97785211949219 -0
-132.6183155156377 84.45801601385618 -0
-133.5754342313239 100.4626843598151 -0
57.43481619028172 97.87985529878915 0
-69.11949339534002 81.34910004945127 -0
184.4924762863959 8.683864613689423 0
8.56101317161759 -185.171890277814 0
-0.3697449268866298 -171.7879494765869 0
25.60999996650816 -183.5920689337882 0
30.36084153155188 -167.2993561896635 0
-7.869334480203101 185.6419957037078 -0
-25.02867213886346 181.9013668269708 -0
26.45155621766914 183.2543593372855 0
16.69299451642368 168.922770521201 0
32.81113368976398 168.9557601624554 0
75.62259035745046 168.9691531817473 0
62.64781555066267 157.8850283331349 0
78.57338419550865 152.998868307593 0
47.78425173757026 164.014012255839 0
-73.80568156317808 -167.6633916682972 0
-90.25041618917592 -161.9699179717735 0
179.0605692987703 -42.08738749953702 0
-184.530858548832 -26.44774745807294 0
40.6340941600123 -105.5911856592681 0
142.8717697723275 -46.74323875994264 0
150.4978997312767 -58.25660338677118 0
-154.8682170662658 -10.77915104749814 0
100.1392284466762 137.6565187572312 0
62.96436189591583 85.41180024349785 0
-113.2422407214164 -16.6317366581057 0
119.6217214930026 105.1108036139704 0
-35.17726822789494 99.99334050362501 -0
115.901528153754 -128.1279476418823 0
-137.5858234853315 -99.90499535415235 0
-80.29567520884478 -130.8877301124364 0
-145.4890158043675 52.867017814326 -0
-158.835445479923 53.65438116913438 -0
-118.8820093986037 -142.2115911747026 0
87.22133121556637 -125.2729287971487 0
49.16340167535694 -94.21526909535541 0
91.12805783230017 -161.2388633126381 0
-41.11851370594373 -152.0652398662409 0
-80.39432634381936 69.90420742550916 -0
-105.1592267270075 -110.2396433871676 0
59.0813466193159 -141.4648449625755 0
-170.3090306886687 74.84361457083639 -0
146.3152969062043 55.95897520377069 0
158.631191638973 64.28026206270133 0
-152.4085922826367 10.03191091793871 -0
-70.1963301497145 134.7385106189864 -0
-76.04783288612362 149.1490423670488 -0
120.49595068484 -95.7388670802209 0
15.30408243846717 153.9620776247497 0
14.79420563999389 -171.0772067911902 0
-129.7125300056792 -87.77595444092744 0
91.48619543054808 161.9411536354907 0
42.98616853378525 180.0267415110076 0
-40.94828603789387 149.258342678048 -0
91.13247853947384 127.4126376325212 0
85.9144356620175 140.7895938773439 0
-122.7830165930647 91.70768444105414 -0
-89.71137226324699 -147.0878078504492 0
-114.0381569427656 -0.7951452974276243 0
36.52378305929714 144.4140605238527 0
-141.4582523755791 -65.25254803800797 0
146.3103452870843 32.30213735207671 0
-108.567048562962 111.5959855424742 -0
171.0188607843372 8.62210960492709 0
58.06589392783288 136.654084686856 0
27.94117172529992 102.0824877347526 0
25.38659014886048 110.3172563864269 0
100.2876635120956 34.05742659815607 0
-149.2110313096614 -42.56195682293843 0
-8.157596133950316 -160.0829580258501 0
135.4672383810153 -80.71629895702964 0
-89.85230493452218 129.5290865705683 -0
104.5738573946076 -138.0677608020249 0
138.6913891825375 -15.21746688852674 0
-22.19329959318042 166.949463279806 -0
-67.09736004015619 -153.7667426234551 0
66.35921203899858 145.7665469594998 0
104.2537225682678 -40.8970589060205 0
-162.1106790174476 89.75086345601119 -0
-0.2677366042224127 172.5017974493376 -0
82.99329916648944 77.08857754742948 0
125.32933958998 -117.8305097230572 0
-62.37590614455767 159.0245815953814 -0
-97.22956584791537 60.22620947500835 -0
-49.53248372821777 -93.72003287179058 0
79.95515637313494 -68.82718308921457 0
-25.08572102502103 -109.7916270778988 0
-99.36218704005096 34.67048185360602 -0
35.62608183783208 156.8854556898504 0
5.005660564600985 -159.2532429489216 0
-144.1276168558258 -116.8876370186664 0
-47.98704205571165 -165.2902832496794 0
-49.30933678446929 102.2787798434691 -0
-77.70981444515679 -82.1718096423087 0
28.92300733542752 -153.9514533084181 0
184.8303389789754 26.5409785221452 0
79.14532908823799 130.3725602022898 0
-24.30917049800684 111.6903847148247 -0
107.9453869226348 -33.85630969005443 0
138.3042662104778 -56.84328437368023 0
-170.0516226102949 -31.81117703496351 0
50.24310989283573 -165.5000772375669 0
-185.7991087390657 24.46571253635324 -0
131.3236006947164 86.31216413209219 0
12.52640992481518 105.4268647012851 0
-93.42891346379481 -63.05154537866511 0
93.49504098064011 62.02658068054398 0
-154.1824054975645 43.20653634185801 -0
165.6417302005107 -39.35091503003738 0
-46.45773155746247 163.4472878948069 -0
-46.50579024967294 -104.1278452703784 0
46.12771283404243 104.5883115765251 0
184.9724058747182 -23.39555970848966 0
-144.5322597366677 -88.70017668241545 0
-111.853572988781 -8.957601294680515 0
-185.7745503497822 -10.32701989272205 0
62.67227695104687 -85.52608403817096 0
-63.34395641585778 -92.90851971983416 0
-81.72250496403875 79.24898101926155 -0
-158.3334418140226 0.5537031886196616 -0
155.9782286928762 76.68952688235295 0
-12.59106090382035 -171.5684565408938 0
-79.31230151806999 -154.3796251317654 0
67.30642408894575 -152.2974184765542 0
171.3547137354486 -4.305794056130988 0
-111.711763811936 -120.8449416375505 0
103.919699655507 46.30377609968917 0
131.2324634745806 -91.39997827499495 0
145.179881684635 116.772415824855 0
162.2937347619092 -63.93120613398246 0
80.50285052032704 -80.26044812893409 0
50.56985917659764 149.2462203925686 0
33.04377028701458 -107.4155540763024 0
97.11254349983152 56.26103242314935 0
116.6387189750619 146.3368865770443 0
167.9555388424859 35.79312707382143 0
82.82527670002474 84.02366091976542 0
94.89072395863927 -63.49600048447112 0
-104.6699937666602 -41.86388944937018 0
93.19184075555658 -145.6495162211247 0
-168.285849805038 45.69005769141632 -0
61.22717900319311 -162.6981713306754 0
100.9580838531098 27.20966651435361 0
25.25581824501057 159.5486019877157 0
47.57420531319622 -102.3295788553142 0
17.46212233886468 -110.5373244244065 0
-102.9306704015418 46.72744602328962 -0
76.90866052417609 81.73776413558441 0
5.401715791012233 -113.4650031034186 0
-33.77549679483877 170.331682956725 -0
-81.22739710880933 136.5948235137831 -0
-174.6297010234748 -17.05584966693255 0
-116.7640621303026 23.19609590383716 -0
34.60844058979997 98.90524054430412 0
112.6936611251295 -0.4986043893807519 0
-61.96955145582356 93.68644011831738 -0
110.9304258303948 20.05754743162259 0
-161.8022022039117 65.82809729965031 -0
29.9041632057864 -113.8430503335687 0
155.7629303431443 37.6087304342707 0
138.924368280638 -5.732899428263607 0
164.6116977891499 -51.6761651457513 0
18.3475474899554 110.7023119067562 0
172.092207862067 -15.8148566818976 0
-16.34545923355229 119.7443929459699 -0
-82.12316970665631 -75.72622368277095 0
-12.99246381950548 173.9203611256498 -0
-17.44105695149548 132.682779390913 -0
84.43515647402421 -86.24052198122514 0
-50.43188788689018 -110.1203373538385 0
-60.27534847345626 -163.0909011964383 0
-26.2494261734766 -188.1134416668317 0
-54.84456832519894 -117.285408247479 0
-18.49902316166047 -120.88473540464 0
-121.9189638542392 -120.5901338430647 0
-125.066387852008 -29.3700835183387 0
111.3640406395409 7.6821036732942 0
50.97807316114437 100.6247752674496 0
94.06214291087859 -133.7872673061828 0
-46.85860120676809 110.7869994173107 -0
-111.1683004443607 8.113741468474513 -0
24.82247104100574 -109.0507678831929 0
-109.5588918227339 23.993458948398 -0
83.3393232765773 98.12013331453839 0
-55.3073956895697 96.20620809102397 -0
111.999151242808 -117.6799656291307 0
-21.69723379271083 -129.7937183994794 0
-40.13148336046307 -104.7618522463995 0
-68.75380059143301 -97.33002486588887 0
-57.60722758248519 -95.88382340859124 0
-8.235004007816245 110.9643761189487 -0
-99.35347262282829 -141.4116810864501 0
-3.841277250315184 -104.2623745268989 0
75.75100958550904 141.2154473400733 0
62.02123029809363 -92.63143329816656 0
-66.01483004534029 98.82266457517404 -0
158.1261216019835 -9.267574650460048 0
-82.79220517512911 87.31071064569907 -0
-118.1908491508872 -129.5152307321342 0
-181.7823028655128 47.84813032848967 -0
92.4173658402445 150.3035247840591 0
$EndNodes
$Elements
9 1560 1 1560
0 2 15 1
1 1 
0 3 15 1
2 2 
0 4 15 1
3 3 
0 5 15 1
4 4 
1 1 1 21
5 1 9 
6 9 10 
7 10 11 
8 11 12 
9 12 13 
10 13 14 
11 14 15 
12 15 16 
13 16 17 
14 17 18 
15 18 19 
16 19 20 
17 20 21 
18 21 22 
19 22 23 
20 23 24 
21 24 25 
22 25 26 
23 26 27 
24 27 28 
25 28 2 
1 2 1 21
26 2 29 
27 29 30 
28 30 31 
29 31 32 
30 32 33 
31 33 34 
32 34 35 
33 35 36 
34 36 37 
35 37 38 
36 38 39 
37 39 40 
38 40 41 
39 41 42 
40 42 43 
41 43 44 
42 44 45 
43 45 46 
44 46 47 
45 47 48 
46 48 3 
1 3 1 21
47 3 49 
48 49 50 
49 50 51 
50 51 52 
51 52 53 
52 53 54 
53 54 55 
54 55 56 
55 56 57 
56 57 58 
57 58 59 
58 59 60 
59 60 61 
60 61 62 
61 62 63 
62 63 64 
63 64 65 
64 65 66 
65 66 67 
66 67 68 
67 68 4 
1 4 1 21
68 4 69 
69 69 70 
70 70 71 
71 71 72 
72 72 73 
73 73 74 
74 74 75 
75 75 76 
76 76 77 
77 77 78 
78 78 79 
79 79 80 
80 80 81 
81 81 82 
82 82 83 
83 83 84 
84 84 85 
85 85 86 
86 86 87 
87 87 88 
88 88 1 
2 1 2 1472
89 438 634 514 
90 403 546 482 
91 160 723 471 
92 587 638 370 
93 602 633 230 
94 499 756 472 
95 179 587 453 
96 453 586 179 
97 581 654 387 
98 497 636 549 
99 66 515 65 
100 588 658 210 
101 493 802 168 
102 368 506 505 
103 497 549 498 
104 507 718 503 
105 534 577 478 
106 593 610 392 
107 496 749 424 
108 594 610 593 
109 475 477 327 
110 17 554 16 
111 610 668 392 
112 471 765 160 
113 442 721 665 
114 415 529 302 
115 534 760 166 
116 484 561 186 
117 634 731 514 
118 395 485 468 
119 472 756 434 
120 460 472 244 
121 398 680 584 
122 509 545 403 
123 617 713 439 
124 593 674 592 
125 577 578 478 
126 187 515 66 
127 572 638 587 
128 368 505 369 
129 518 695 516 
130 392 674 593 
131 531 749 496 
132 467 685 234 
133 397 491 490 
134 511 717 509 
135 517 518 516 
136 177 725 595 
137 491 612 559 
138 497 611 192 
139 510 511 509 
140 174 610 594 
141 584 606 398 
142 330 791 459 
143 444 517 309 
144 348 469 419 
145 219 485 395 
146 475 760 477 
147 671 743 700 
148 505 507 503 
149 372 503 502 
150 460 499 472 
151 297 487 486 
152 476 760 475 
153 444 518 517 
154 546 750 482 
155 485 772 385 
156 581 655 654 
157 589 658 588 
158 456 800 274 
159 352 470 433 
160 446 510 280 
161 258 475 327 
162 159 758 463 
163 470 723 433 
164 483 561 484 
165 274 800 465 
166 403 482 288 
167 390 516 481 
168 527 612 491 
169 694 721 582 
170 234 808 467 
171 16 554 189 
172 188 768 495 
173 520 710 689 
174 599 659 411 
175 391 524 462 
176 605 650 474 
177 500 704 163 
178 389 521 493 
179 587 740 572 
180 397 490 321 
181 596 672 606 
182 446 511 510 
183 522 802 493 
184 435 519 250 
185 433 494 354 
186 168 540 493 
187 184 713 617 
188 665 721 416 
189 431 791 330 
190 330 459 332 
191 642 669 396 
192 481 605 474 
193 499 806 196 
194 501 532 400 
195 514 763 438 
196 464 537 463 
197 469 678 419 
198 302 529 304 
199 551 742 155 
200 531 555 189 
201 186 637 484 
202 362 743 671 
203 507 692 553 
204 477 760 534 
205 408 496 227 
206 633 711 230 
207 658 694 210 
208 274 465 275 
209 406 709 565 
210 463 699 159 
211 297 486 298 
212 531 576 555 
213 372 502 373 
214 179 740 587 
215 244 472 245 
216 468 570 395 
217 506 507 505 
218 471 723 470 
219 606 672 398 
220 521 522 493 
221 445 669 642 
222 520 576 408 
223 309 517 310 
224 385 772 467 
225 216 573 220 
226 573 710 520 
227 408 531 496 
228 378 501 400 
229 707 747 432 
230 280 510 281 
231 215 573 216 
232 286 509 403 
233 329 807 458 
234 641 702 455 
235 242 524 391 
236 425 608 415 
237 263 701 661 
238 315 516 390 
239 502 504 501 
240 416 721 694 
241 97 746 205 
242 509 717 545 
243 425 792 608 
244 235 496 424 
245 250 519 251 
246 645 803 454 
247 203 513 512 
248 343 521 389 
249 602 741 633 
250 448 449 382 
251 503 504 502 
252 191 605 481 
253 542 561 483 
254 414 524 236 
255 433 611 494 
256 135 574 134 
257 494 611 497 
258 205 740 96 
259 415 764 529 
260 641 725 177 
261 230 682 602 
262 225 520 408 
263 455 702 207 
264 462 742 551 
265 294 488 297 
266 158 696 489 
267 590 592 365 
268 553 568 507 
269 579 660 621 
270 205 746 571 
271 341 523 521 
272 369 505 372 
273 341 779 523 
274 361 508 368 
275 181 747 707 
276 487 670 486 
277 511 777 552 
278 484 637 488 
279 477 478 327 
280 326 672 596 
281 192 636 497 
282 7 727 203 
283 134 574 199 
284 177 702 641 
285 400 495 448 
286 210 694 582 
287 294 787 488 
288 422 798 785 
289 391 461 460 
290 328 463 444 
291 387 771 581 
292 380 448 382 
293 493 540 492 
294 595 725 596 
295 572 740 205 
296 422 423 364 
297 401 489 456 
298 399 519 480 
299 389 492 469 
300 580 655 581 
301 482 483 388 
302 494 497 363 
303 516 695 481 
304 175 803 645 
305 390 474 473 
306 406 776 523 
307 399 476 475 
308 490 807 329 
309 629 724 451 
310 495 754 188 
311 345 469 348 
312 391 460 244 
313 479 798 260 
314 401 456 274 
315 419 471 470 
316 661 701 615 
317 441 690 653 
318 566 788 449 
319 525 784 269 
320 563 726 637 
321 565 776 406 
322 335 407 406 
323 487 726 670 
324 545 546 403 
325 460 806 499 
326 328 444 309 
327 329 458 431 
328 242 391 244 
329 449 768 566 
330 397 527 491 
331 278 426 280 
332 301 425 415 
333 407 709 406 
334 266 422 364 
335 307 328 309 
336 411 693 599 
337 272 401 274 
338 163 639 500 
339 583 606 584 
340 376 501 378 
341 688 743 676 
342 248 434 250 
343 552 569 511 
344 524 780 462 
345 235 424 414 
346 378 400 380 
347 504 738 501 
348 613 707 432 
349 500 515 407 
350 426 446 280 
351 343 389 345 
352 464 794 537 
353 361 795 508 
354 206 591 112 
355 203 727 514 
356 284 509 286 
357 313 516 315 
358 495 768 448 
359 621 691 579 
360 434 435 250 
361 348 419 350 
362 400 448 380 
363 315 390 317 
364 432 675 613 
365 465 466 426 
366 286 403 288 
367 191 695 556 
368 254 399 256 
369 203 514 513 
370 477 534 478 
371 462 551 461 
372 602 682 600 
373 653 690 116 
374 389 469 345 
375 281 510 284 
376 245 472 248 
377 251 519 254 
378 329 431 330 
379 207 702 128 
380 323 490 329 
381 275 465 278 
382 321 490 323 
383 341 521 343 
384 310 517 313 
385 196 647 499 
386 229 496 235 
387 473 809 319 
388 506 692 507 
389 370 715 587 
390 212 648 526 
391 319 397 321 
392 356 494 363 
393 317 473 319 
394 288 482 290 
395 352 433 354 
396 350 470 352 
397 373 502 376 
398 151 724 629 
399 354 494 356 
400 258 327 260 
401 256 475 258 
402 266 364 267 
403 327 479 260 
404 227 496 229 
405 304 529 307 
406 267 525 269 
407 390 481 474 
408 501 738 532 
409 368 508 506 
410 223 520 225 
411 399 480 476 
412 592 674 365 
413 290 388 292 
414 536 567 423 
415 450 808 234 
416 290 482 388 
417 481 695 191 
418 372 505 503 
419 238 524 242 
420 235 414 236 
421 408 576 531 
422 236 524 238 
423 442 761 721 
424 563 637 186 
425 390 473 317 
426 530 572 205 
427 399 475 256 
428 419 470 350 
429 225 408 227 
430 459 500 407 
431 148 601 147 
432 463 758 444 
433 301 415 302 
434 332 459 335 
435 483 484 388 
436 335 406 336 
437 356 363 358 
438 112 591 111 
439 489 722 158 
440 319 809 397 
441 424 533 414 
442 488 787 484 
443 262 266 265 
444 220 573 223 
445 323 329 325 
446 298 486 301 
447 207 786 455 
448 254 519 399 
449 294 297 296 
450 328 529 464 
451 389 493 492 
452 242 244 243 
453 272 274 273 
454 153 730 650 
455 458 704 431 
456 556 695 518 
457 284 510 509 
458 229 235 232 
459 269 784 272 
460 209 655 580 
461 361 368 367 
462 468 485 383 
463 446 777 511 
464 298 301 300 
465 457 783 202 
466 497 498 363 
467 176 600 599 
468 202 733 457 
469 313 517 516 
470 626 664 622 
471 419 678 471 
472 523 779 406 
473 307 309 308 
474 17 697 554 
475 539 670 167 
476 332 335 334 
477 266 798 422 
478 200 603 149 
479 297 488 487 
480 539 792 670 
481 269 272 271 
482 248 472 434 
483 278 280 279 
484 376 378 377 
485 424 554 533 
486 453 732 586 
487 197 624 623 
488 614 615 202 
489 471 678 677 
490 341 343 342 
491 175 645 130 
492 328 464 463 
493 515 639 65 
494 369 372 371 
495 537 699 463 
496 278 465 426 
497 437 712 584 
498 512 714 203 
499 204 621 620 
500 248 250 249 
501 395 575 217 
502 176 599 598 
503 400 532 495 
504 580 581 181 
505 382 468 383 
506 376 502 501 
507 180 589 588 
508 148 603 601 
509 343 345 344 
510 526 735 212 
511 238 242 241 
512 338 341 340 
513 373 376 375 
514 676 743 362 
515 624 625 623 
516 423 447 364 
517 391 462 461 
518 141 648 212 
519 590 683 589 
520 180 590 589 
521 562 760 476 
522 458 796 704 
523 621 622 620 
524 5 201 152 
525 6 202 136 
526 7 203 120 
527 8 204 104 
528 102 197 101 
529 118 198 117 
530 134 199 133 
531 150 200 149 
532 476 757 562 
533 304 307 306 
534 91 181 90 
535 107 182 106 
536 123 183 122 
537 139 184 138 
538 99 173 98 
539 115 174 114 
540 131 175 130 
541 147 176 146 
542 95 179 94 
543 111 180 110 
544 127 177 126 
545 143 178 142 
546 383 485 385 
547 578 698 422 
548 625 663 623 
549 223 573 520 
550 435 770 519 
551 211 606 583 
552 307 529 328 
553 622 664 620 
554 275 278 277 
555 548 738 504 
556 345 348 346 
557 245 248 247 
558 378 380 379 
559 540 716 492 
560 266 267 265 
561 329 330 325 
562 488 637 487 
563 700 743 626 
564 147 601 176 
565 500 791 704 
566 263 661 617 
567 184 617 616 
568 153 612 527 
569 313 315 314 
570 508 795 498 
571 93 209 92 
572 109 210 108 
573 125 211 124 
574 141 212 140 
575 97 205 96 
576 113 206 112 
577 129 207 128 
578 145 208 144 
579 284 286 285 
580 482 750 483 
581 380 382 381 
582 297 298 296 
583 530 638 572 
584 414 780 524 
585 571 746 635 
586 111 591 180 
587 604 610 174 
588 595 596 211 
589 591 592 590 
590 533 742 414 
591 260 798 262 
592 235 236 232 
593 335 459 407 
594 613 736 201 
595 135 783 574 
596 315 317 316 
597 310 313 312 
598 301 486 425 
599 439 706 617 
600 197 664 626 
601 348 350 349 
602 301 302 300 
603 254 256 255 
604 281 284 283 
605 467 772 685 
606 368 369 367 
607 520 689 576 
608 286 288 287 
609 338 779 341 
610 601 603 602 
611 335 336 334 
612 693 797 640 
613 197 626 624 
614 675 736 613 
615 206 592 591 
616 251 254 253 
617 256 258 257 
618 164 738 548 
619 565 802 522 
620 317 319 318 
621 623 663 100 
622 272 273 271 
623 620 664 103 
624 350 352 351 
625 206 594 593 
626 292 787 294 
627 372 373 371 
628 205 571 530 
629 274 275 273 
630 288 290 289 
631 197 623 101 
632 6 614 202 
633 204 620 104 
634 150 629 200 
635 199 627 133 
636 8 618 204 
637 242 243 241 
638 533 697 155 
639 319 321 320 
640 5 613 201 
641 183 630 122 
642 635 746 173 
643 258 260 259 
644 184 616 138 
645 182 619 106 
646 131 628 175 
647 449 570 468 
648 583 584 183 
649 449 468 382 
650 244 245 243 
651 352 354 353 
652 385 467 417 
653 91 580 181 
654 107 582 182 
655 123 583 183 
656 139 585 184 
657 179 586 94 
658 180 588 110 
659 177 595 126 
660 176 598 146 
661 143 597 178 
662 309 310 308 
663 444 758 518 
664 290 292 291 
665 376 377 375 
666 174 594 114 
667 519 770 480 
668 341 342 340 
669 307 308 306 
670 489 781 722 
671 503 745 504 
672 278 279 277 
673 321 323 322 
674 484 787 388 
675 223 225 224 
676 113 594 206 
677 354 356 355 
678 248 249 247 
679 364 525 267 
680 650 730 474 
681 220 223 222 
682 209 580 92 
683 210 582 108 
684 211 583 124 
685 212 585 140 
686 93 586 209 
687 109 588 210 
688 125 595 211 
689 145 598 208 
690 208 597 144 
691 217 575 214 
692 292 294 293 
693 206 593 592 
694 528 811 119 
695 566 768 188 
696 343 344 342 
697 280 281 279 
698 358 795 361 
699 225 227 226 
700 426 705 446 
701 260 262 261 
702 219 395 217 
703 345 346 344 
704 166 804 534 
705 401 781 489 
706 522 776 565 
707 75 557 74 
708 15 555 14 
709 55 556 54 
710 687 734 627 
711 43 544 42 
712 250 251 249 
713 63 547 62 
714 83 548 82 
715 378 379 377 
716 227 229 228 
717 10 213 9 
718 13 541 12 
719 78 549 77 
720 601 602 600 
721 61 559 60 
722 50 535 49 
723 38 550 37 
724 549 759 498 
725 46 561 45 
726 26 560 25 
727 356 358 357 
728 567 799 423 
729 498 795 363 
730 262 265 264 
731 330 332 331 
732 521 523 522 
733 323 325 324 
734 149 603 148 
735 584 680 437 
736 629 773 200 
737 683 762 589 
738 570 766 395 
739 498 748 508 
740 478 479 327 
741 514 731 513 
742 617 706 263 
743 267 269 268 
744 313 314 312 
745 627 782 687 
746 294 296 295 
747 434 631 435 
748 229 232 231 
749 720 773 629 
750 284 285 283 
751 219 772 485 
752 176 601 600 
753 599 739 659 
754 298 300 299 
755 489 801 456 
756 204 691 621 
757 170 578 577 
758 348 349 346 
759 358 361 360 
760 466 705 426 
761 315 316 314 
762 461 806 460 
763 596 725 326 
764 380 381 379 
765 491 807 490 
766 466 558 550 
767 448 768 449 
768 286 287 285 
769 395 766 575 
770 254 255 253 
771 74 557 160 
772 14 555 157 
773 54 556 159 
774 766 788 165 
775 361 367 366 
776 42 544 193 
777 62 547 194 
778 82 548 195 
779 208 693 640 
780 164 679 532 
781 332 334 333 
782 236 238 237 
783 187 709 515 
784 189 749 531 
785 541 607 12 
786 382 383 381 
787 256 257 255 
788 269 271 270 
789 213 538 9 
790 360 666 357 
791 317 318 316 
792 406 779 336 
793 549 636 77 
794 535 539 49 
795 181 707 90 
796 574 783 457 
797 550 558 37 
798 559 612 60 
799 45 561 542 
800 350 351 349 
801 584 712 183 
802 195 718 568 
803 302 304 303 
804 25 560 543 
805 288 289 287 
806 603 741 602 
807 596 606 211 
808 422 785 578 
809 336 338 337 
810 180 591 590 
811 258 259 257 
812 319 320 318 
813 369 371 370 
814 512 513 402 
815 352 353 351 
816 474 730 473 
817 290 291 289 
818 500 639 515 
819 101 623 100 
820 137 614 6 
821 104 620 103 
822 532 679 495 
823 151 629 150 
824 238 241 240 
825 133 627 132 
826 105 618 8 
827 122 630 121 
828 89 613 5 
829 138 616 137 
830 556 758 159 
831 137 616 614 
832 106 619 105 
833 132 628 131 
834 321 322 320 
835 627 628 132 
836 105 619 618 
837 550 705 466 
838 338 340 339 
839 422 698 423 
840 373 375 374 
841 92 580 91 
842 108 582 107 
843 124 583 123 
844 140 585 139 
845 94 586 93 
846 110 588 109 
847 126 595 125 
848 146 598 145 
849 214 575 213 
850 354 355 353 
851 114 594 113 
852 144 597 143 
853 304 306 305 
854 568 718 507 
855 275 277 276 
856 292 293 291 
857 223 224 222 
858 365 683 590 
859 260 261 259 
860 202 783 136 
861 225 226 224 
862 614 661 615 
863 166 760 562 
864 637 726 487 
865 245 247 246 
866 742 780 414 
867 544 546 545 
868 323 324 322 
869 604 690 441 
870 310 312 311 
871 267 268 265 
872 330 331 325 
873 203 714 120 
874 356 357 355 
875 227 228 226 
876 198 653 117 
877 518 758 556 
878 557 789 160 
879 527 730 153 
880 298 299 296 
881 119 714 528 
882 294 295 293 
883 262 264 261 
884 447 525 364 
885 11 169 10 
886 31 170 30 
887 51 171 50 
888 71 172 70 
889 1 165 88 
890 2 166 28 
891 3 167 48 
892 4 168 68 
893 14 157 13 
894 34 158 33 
895 54 159 53 
896 74 160 73 
897 24 161 23 
898 44 162 43 
899 64 163 63 
900 84 164 83 
901 59 153 58 
902 79 154 78 
903 19 155 18 
904 39 156 38 
905 178 648 142 
906 618 691 204 
907 174 690 604 
908 229 231 228 
909 129 645 207 
910 22 196 21 
911 42 193 41 
912 62 194 61 
913 82 195 81 
914 16 189 15 
915 36 190 35 
916 56 191 55 
917 76 192 75 
918 27 185 26 
919 47 186 46 
920 67 187 66 
921 87 188 86 
922 393 604 441 
923 28 562 27 
924 12 607 11 
925 48 563 47 
926 68 564 67 
927 624 688 625 
928 88 566 87 
929 155 742 533 
930 32 536 31 
931 69 540 4 
932 236 237 232 
933 619 761 686 
934 617 661 616 
935 30 577 29 
936 45 542 44 
937 33 567 32 
938 52 537 51 
939 9 538 1 
940 60 612 59 
941 80 553 79 
942 77 636 76 
943 49 539 3 
944 20 551 19 
945 25 543 24 
946 571 635 404 
947 281 283 282 
948 332 333 331 
949 40 552 39 
950 58 650 57 
951 23 647 22 
952 358 360 357 
953 102 664 197 
954 37 558 36 
955 57 605 56 
956 404 666 360 
957 99 663 173 
958 81 568 80 
959 41 569 40 
960 336 337 334 
961 269 270 268 
962 213 575 538 
963 555 576 157 
964 302 303 300 
965 369 370 367 
966 172 774 716 
967 251 253 252 
968 544 545 193 
969 130 645 129 
970 486 670 425 
971 405 662 641 
972 117 653 116 
973 504 745 548 
974 660 755 621 
975 361 366 360 
976 383 385 384 
977 529 764 464 
978 100 663 99 
979 142 648 141 
980 513 656 402 
981 103 664 102 
982 275 276 273 
983 385 417 386 
984 405 641 455 
985 775 808 450 
986 554 697 533 
987 670 792 425 
988 238 240 237 
989 65 639 64 
990 11 607 169 
991 166 562 28 
992 167 563 48 
993 168 564 68 
994 165 566 88 
995 169 607 215 
996 31 536 170 
997 4 540 168 
998 170 577 30 
999 271 396 270 
1000 116 690 115 
1001 51 537 171 
1002 44 542 162 
1003 736 808 775 
1004 373 374 371 
1005 158 567 33 
1006 1 538 165 
1007 59 612 153 
1008 162 544 43 
1009 79 553 154 
1010 163 547 63 
1011 164 548 83 
1012 3 539 167 
1013 24 543 161 
1014 19 551 155 
1015 310 311 308 
1016 609 610 604 
1017 39 552 156 
1018 153 650 58 
1019 161 647 23 
1020 169 213 10 
1021 192 557 75 
1022 189 555 15 
1023 215 710 573 
1024 191 556 55 
1025 157 541 13 
1026 154 549 78 
1027 587 715 453 
1028 171 535 50 
1029 27 562 185 
1030 208 640 597 
1031 156 550 38 
1032 47 563 186 
1033 67 564 187 
1034 85 679 84 
1035 87 566 188 
1036 386 429 384 
1037 411 797 693 
1038 304 305 303 
1039 194 559 61 
1040 76 636 192 
1041 342 579 340 
1042 22 647 196 
1043 186 561 46 
1044 36 558 190 
1045 216 220 218 
1046 56 605 191 
1047 410 684 640 
1048 185 560 26 
1049 195 568 81 
1050 193 569 41 
1051 367 638 366 
1052 115 690 174 
1053 32 567 536 
1054 233 234 221 
1055 296 634 295 
1056 233 430 239 
1057 338 339 337 
1058 64 639 163 
1059 245 246 243 
1060 57 650 605 
1061 80 568 553 
1062 241 410 240 
1063 628 669 175 
1064 169 215 214 
1065 40 569 552 
1066 84 679 164 
1067 492 774 469 
1068 268 649 265 
1069 340 412 339 
1070 128 702 127 
1071 220 222 221 
1072 599 693 598 
1073 216 217 214 
1074 686 778 619 
1075 379 387 377 
1076 393 609 604 
1077 251 252 249 
1078 281 282 279 
1079 119 811 118 
1080 480 757 476 
1081 375 443 374 
1082 314 609 312 
1083 262 798 266 
1084 152 724 151 
1085 393 436 311 
1086 346 347 344 
1087 71 677 172 
1088 439 440 252 
1089 394 445 276 
1090 735 753 212 
1091 239 450 234 
1092 218 219 217 
1093 331 657 325 
1094 277 394 276 
1095 405 421 282 
1096 287 326 285 
1097 257 263 255 
1098 264 428 427 
1099 265 649 264 
1100 443 453 374 
1101 543 631 161 
1102 72 677 71 
1103 564 565 187 
1104 247 409 246 
1105 428 574 457 
1106 96 740 95 
1107 409 420 246 
1108 339 442 337 
1109 300 656 299 
1110 312 393 311 
1111 383 384 381 
1112 170 698 578 
1113 451 720 629 
1114 98 746 97 
1115 351 362 349 
1116 295 438 437 
1117 270 452 268 
1118 89 707 613 
1119 34 696 158 
1120 423 799 447 
1121 237 659 232 
1122 232 659 231 
1123 121 727 7 
1124 155 697 18 
1125 318 392 316 
1126 283 405 282 
1127 597 684 178 
1128 385 386 384 
1129 253 439 252 
1130 305 402 303 
1131 616 661 614 
1132 291 398 289 
1133 303 656 300 
1134 190 696 35 
1135 299 634 296 
1136 355 359 353 
1137 159 699 53 
1138 370 638 367 
1139 333 416 413 
1140 264 427 261 
1141 340 579 412 
1142 325 657 324 
1143 386 432 429 
1144 322 365 320 
1145 366 404 360 
1146 295 437 293 
1147 366 530 404 
1148 334 665 333 
1149 585 713 184 
1150 240 411 237 
1151 337 665 334 
1152 228 230 226 
1153 333 413 331 
1154 418 528 512 
1155 418 512 402 
1156 305 418 402 
1157 689 710 541 
1158 635 667 666 
1159 127 702 177 
1160 52 699 537 
1161 627 734 628 
1162 428 457 427 
1163 554 749 189 
1164 393 441 436 
1165 635 666 404 
1166 677 678 172 
1167 394 454 445 
1168 532 738 164 
1169 530 571 404 
1170 615 733 202 
1171 172 716 70 
1172 570 788 766 
1173 515 709 407 
1174 409 526 420 
1175 233 239 234 
1176 405 455 421 
1177 220 221 218 
1178 271 642 396 
1179 222 233 221 
1180 169 214 213 
1181 600 739 599 
1182 424 749 554 
1183 200 741 603 
1184 215 216 214 
1185 239 451 450 
1186 216 218 217 
1187 654 655 443 
1188 69 716 540 
1189 35 696 34 
1190 608 792 535 
1191 632 633 430 
1192 18 697 17 
1193 508 748 506 
1194 162 546 544 
1195 171 608 535 
1196 183 712 630 
1197 452 649 268 
1198 53 699 52 
1199 452 703 649 
1200 192 611 557 
1201 295 634 438 
1202 224 632 222 
1203 553 692 154 
1204 273 642 271 
1205 199 782 627 
1206 196 728 21 
1207 312 609 393 
1208 241 646 410 
1209 569 717 511 
1210 243 646 241 
1211 308 643 306 
1212 233 632 430 
1213 20 728 551 
1214 182 761 619 
1215 193 717 569 
1216 201 724 152 
1217 371 715 370 
1218 442 665 337 
1219 413 657 331 
1220 667 708 666 
1221 190 801 696 
1222 366 638 530 
1223 375 654 443 
1224 624 743 688 
1225 621 755 622 
1226 429 673 384 
1227 574 703 199 
1228 377 654 375 
1229 279 651 277 
1230 160 789 723 
1231 264 649 428 
1232 402 656 303 
1233 249 652 247 
1234 551 728 461 
1235 411 659 237 
1236 622 700 626 
1237 785 798 479 
1238 344 660 342 
1239 649 703 428 
1240 188 754 86 
1241 160 765 73 
1242 2 804 166 
1243 247 652 409 
1244 161 756 647 
1245 598 693 208 
1246 234 685 221 
1247 285 662 283 
1248 388 787 292 
1249 277 651 394 
1250 581 747 181 
1251 577 804 29 
1252 465 800 466 
1253 316 668 314 
1254 436 644 643 
1255 289 672 287 
1256 276 642 273 
1257 283 662 405 
1258 541 710 607 
1259 118 811 198 
1260 261 681 259 
1261 95 740 179 
1262 417 675 386 
1263 349 671 346 
1264 70 716 69 
1265 311 643 308 
1266 333 665 416 
1267 381 673 379 
1268 704 796 547 
1269 320 674 318 
1270 222 632 233 
1271 705 777 446 
1272 579 691 412 
1273 652 735 409 
1274 466 729 558 
1275 679 754 495 
1276 445 642 276 
1277 85 754 679 
1278 582 721 182 
1279 423 698 536 
1280 436 643 311 
1281 662 725 641 
1282 246 646 243 
1283 353 676 351 
1284 413 658 657 
1285 173 746 98 
1286 90 707 89 
1287 609 668 610 
1288 651 737 394 
1289 669 734 396 
1290 342 660 579 
1291 640 684 597 
1292 440 652 252 
1293 538 766 165 
1294 293 680 291 
1295 387 654 377 
1296 718 745 503 
1297 449 788 570 
1298 421 651 282 
1299 253 706 439 
1300 523 776 522 
1301 420 646 246 
1302 252 652 249 
1303 282 651 279 
1304 363 795 358 
1305 259 701 257 
1306 633 773 430 
1307 716 774 492 
1308 619 778 618 
1309 72 765 677 
1310 272 784 401 
1311 314 668 609 
1312 198 752 644 
1313 326 662 285 
1314 655 732 443 
1315 347 660 344 
1316 324 683 322 
1317 120 714 119 
1318 379 673 387 
1319 478 785 479 
1320 231 682 228 
1321 346 671 347 
1322 287 672 326 
1323 719 752 418 
1324 536 698 170 
1325 542 750 162 
1326 384 673 381 
1327 386 675 432 
1328 586 732 209 
1329 218 685 219 
1330 453 715 374 
1331 438 763 712 
1332 392 668 316 
1333 255 706 253 
1334 684 790 751 
1335 427 681 261 
1336 257 701 263 
1337 626 743 624 
1338 157 689 541 
1339 398 672 289 
1340 362 671 349 
1341 359 676 353 
1342 326 725 662 
1343 437 680 293 
1344 483 750 542 
1345 351 676 362 
1346 365 674 320 
1347 209 732 655 
1348 318 674 392 
1349 163 704 547 
1350 263 706 255 
1351 21 728 20 
1352 291 680 398 
1353 156 705 550 
1354 643 719 306 
1355 226 711 224 
1356 469 774 678 
1357 396 687 270 
1358 339 686 442 
1359 644 719 643 
1360 564 802 565 
1361 681 733 615 
1362 359 688 676 
1363 322 683 365 
1364 305 719 418 
1365 440 735 652 
1366 270 687 452 
1367 412 686 339 
1368 228 682 230 
1369 230 711 226 
1370 578 785 478 
1371 712 763 630 
1372 428 703 574 
1373 576 689 157 
1374 421 737 651 
1375 618 778 691 
1376 439 713 440 
1377 221 685 218 
1378 543 744 631 
1379 534 804 577 
1380 374 715 371 
1381 432 747 429 
1382 640 797 410 
1383 528 714 512 
1384 438 712 437 
1385 666 708 357 
1386 306 719 305 
1387 459 791 500 
1388 608 794 764 
1389 355 708 359 
1390 670 726 167 
1391 457 733 427 
1392 560 793 744 
1393 441 769 436 
1394 239 720 451 
1395 632 711 633 
1396 357 708 355 
1397 644 769 198 
1398 430 720 239 
1399 644 752 719 
1400 416 694 413 
1401 681 701 259 
1402 224 711 632 
1403 167 726 563 
1404 434 756 631 
1405 336 779 338 
1406 684 751 178 
1407 635 812 667 
1408 671 700 347 
1409 545 717 193 
1410 447 781 525 
1411 212 753 585 
1412 741 773 633 
1413 653 769 441 
1414 648 751 526 
1415 607 710 215 
1416 615 701 681 
1417 413 694 658 
1418 558 729 190 
1419 656 731 299 
1420 560 744 543 
1421 513 731 656 
1422 667 812 625 
1423 767 796 458 
1424 659 739 231 
1425 158 799 567 
1426 196 806 728 
1427 548 745 195 
1428 433 789 611 
1429 171 794 608 
1430 630 727 121 
1431 696 801 489 
1432 647 756 499 
1433 136 783 135 
1434 86 754 85 
1435 565 709 187 
1436 685 772 219 
1437 692 759 154 
1438 417 808 736 
1439 443 732 453 
1440 410 797 240 
1441 744 793 770 
1442 631 744 435 
1443 299 731 634 
1444 658 762 657 
1445 691 778 412 
1446 178 751 648 
1447 173 812 635 
1448 73 765 72 
1449 201 775 724 
1450 625 812 663 
1451 409 735 526 
1452 394 737 454 
1453 667 805 708 
1454 625 805 667 
1455 417 736 675 
1456 347 755 660 
1457 677 765 471 
1458 397 809 527 
1459 156 777 705 
1460 721 761 182 
1461 708 805 359 
1462 324 762 683 
1463 429 771 673 
1464 562 757 185 
1465 467 808 417 
1466 418 752 528 
1467 724 775 451 
1468 673 771 387 
1469 559 767 491 
1470 162 750 546 
1471 231 739 682 
1472 526 751 420 
1473 198 769 653 
1474 29 804 2 
1475 547 796 194 
1476 454 810 645 
1477 427 733 681 
1478 704 791 431 
1479 535 792 539 
1480 458 807 767 
1481 730 809 473 
1482 575 766 538 
1483 445 803 669 
1484 688 805 625 
1485 751 790 420 
1486 154 759 549 
1487 455 786 421 
1488 631 756 161 
1489 552 777 156 
1490 628 734 669 
1491 589 762 658 
1492 682 739 600 
1493 722 799 158 
1494 195 745 718 
1495 764 794 464 
1496 396 734 687 
1497 657 762 324 
1498 165 788 566 
1499 410 790 684 
1500 194 767 559 
1501 608 764 415 
1502 537 794 171 
1503 436 769 644 
1504 748 759 692 
1505 700 755 347 
1506 168 802 564 
1507 713 753 440 
1508 506 748 692 
1509 646 790 410 
1510 645 810 207 
1511 451 775 450 
1512 757 793 185 
1513 678 774 172 
1514 686 761 442 
1515 452 782 703 
1516 663 812 173 
1517 198 811 752 
1518 727 763 514 
1519 454 803 445 
1520 240 797 411 
1521 185 793 560 
1522 611 789 557 
1523 194 796 767 
1524 480 793 757 
1525 728 806 461 
1526 669 803 175 
1527 622 755 700 
1528 430 773 720 
1529 440 753 735 
1530 585 753 713 
1531 747 771 429 
1532 466 800 729 
1533 359 805 688 
1534 412 778 686 
1535 630 763 727 
1536 736 775 201 
1537 687 782 452 
1538 781 784 525 
1539 703 782 199 
1540 581 771 747 
1541 420 790 646 
1542 527 809 730 
1543 752 811 528 
1544 200 773 741 
1545 498 759 748 
1546 421 786 737 
1547 462 780 742 
1548 722 781 447 
1549 729 801 190 
1550 723 789 433 
1551 729 800 456 
1552 744 770 435 
1553 737 810 454 
1554 770 793 480 
1555 447 799 722 
1556 767 807 491 
1557 456 801 729 
1558 401 784 781 
1559 786 810 737 
1560 207 810 786 
$EndElements
